<svg width="64" height="64" viewBox="0 0 64 64" fill="none" xmlns="http://www.w3.org/2000/svg">
<path d="M14.6667 2.66669C12.4575 2.66669 10.6667 4.45755 10.6667 6.66669V57.3334C10.6667 59.5425 12.4575 61.3334 14.6667 61.3334H49.3333C51.5425 61.3334 53.3333 59.5425 53.3333 57.3334V18.6667L37.3333 2.66669H14.6667Z" fill="#F4B70A"/>
<path d="M14.6667 61.3334C12.4575 61.3334 10.6667 59.5425 10.6667 57.3334V56.6667C10.6667 58.8758 12.4575 60.6667 14.6667 60.6667H49.3333C51.5425 60.6667 53.3333 58.8758 53.3333 56.6667V57.3334C53.3333 59.5425 51.5425 61.3334 49.3333 61.3334H14.6667Z" fill="#EFA904"/>
<path d="M14.6667 2.66669C12.4575 2.66669 10.6667 4.45755 10.6667 6.66669V7.33335C10.6667 5.12421 12.4575 3.33335 14.6667 3.33335H38L37.3333 2.66669H14.6667Z" fill="#F6C028"/>
<path d="M53.3333 32.3333V18.6666L51 16.3333H39.7475C38.8566 16.3333 38.4105 17.4105 39.0404 18.0404L53.3333 32.3333Z" fill="url(#paint0_linear_109_34)"/>
<path d="M37.3333 2.66669L53.3333 18.6667H41.3333C39.1242 18.6667 37.3333 16.8758 37.3333 14.6667V2.66669Z" fill="#FADC87"/>
<path fill-rule="evenodd" clip-rule="evenodd" d="M22.6667 29.3333C21.9303 29.3333 21.3333 29.9303 21.3333 30.6666V49.3333C21.3333 50.0697 21.9303 50.6666 22.6667 50.6666H41.3333C42.0697 50.6666 42.6667 50.0697 42.6667 49.3333V30.6666C42.6667 29.9303 42.0697 29.3333 41.3333 29.3333H22.6667ZM40 35.3333H24V44.6666H40V35.3333Z" fill="white"/>
<defs>
<linearGradient id="paint0_linear_109_34" x1="46.0394" y1="32.3333" x2="46.0394" y2="16" gradientUnits="userSpaceOnUse">
<stop stop-color="#F4B70A"/>
<stop offset="1" stop-color="#E2930A"/>
</linearGradient>
</defs>
</svg>
