<svg xmlns="http://www.w3.org/2000/svg" viewBox="0 0 64 64" id="paypal-card"><g data-name="Paypal card"><path fill="#139bd7" d="M47 25.23a2.91 2.91 0 0 0-1-1.1 4.63 4.63 0 0 0-1.63-.59 12.57 12.57 0 0 0-2.19-.17H38.3a1 1 0 0 0-.88.71L34.8 35.47a.56.56 0 0 0 .57.71h1.86a1 1 0 0 0 .89-.7l.63-2.77a1 1 0 0 1 .9-.7h.53a8.9 8.9 0 0 0 5.32-1.4 4.41 4.41 0 0 0 1.88-3.69 3.67 3.67 0 0 0-.38-1.69ZM43 29a4 4 0 0 1-2.35.61h-.45a.57.57 0 0 1-.57-.71l.57-2.41a1 1 0 0 1 .89-.71h.6a3 3 0 0 1 1.62.36 1.26 1.26 0 0 1 .55 1.11A2.09 2.09 0 0 1 43 29Zm19.4-5.49h-1.65A1 1 0 0 0 60 24l-.09.15-.08.37-2.38 10.61-.08.33a.53.53 0 0 0 .46.67h1.77a.93.93 0 0 0 .8-.57l.1-.14L63 24.17a.54.54 0 0 0-.58-.7ZM56 26.82a7.12 7.12 0 0 0-3.32-.59 14.22 14.22 0 0 0-2.25.18c-.56.08-.61.1-1 .17a1.08 1.08 0 0 0-.81.87l-.23.93c-.13.59.21.57.37.52a9.45 9.45 0 0 1 1.1-.32 8.23 8.23 0 0 1 1.75-.24 4.66 4.66 0 0 1 1.69.24.86.86 0 0 1 .56.84v.27l-.27.16a33.3 33.3 0 0 0-2.74.3 9 9 0 0 0-2.37.65 3.73 3.73 0 0 0-1.6 1.26 3.5 3.5 0 0 0-.52 1.94 2.33 2.33 0 0 0 .76 1.78 2.89 2.89 0 0 0 2 .66 5.12 5.12 0 0 0 1.17-.1l.9-.31.77-.42.69-.47-.06.3a.54.54 0 0 0 .49.7h1.76a1 1 0 0 0 .79-.7L57 29.59l.07-.48v-.45A2 2 0 0 0 56 26.82Zm-3 6.61-.3.39-.72.37a2.66 2.66 0 0 1-1 .21 2.19 2.19 0 0 1-1-.2l-.37-.69a1.44 1.44 0 0 1 .27-.92 1.84 1.84 0 0 1 .8-.53 6.5 6.5 0 0 1 1.22-.28c.42-.05 1.27-.15 1.37-.15l.13.23c-.04.14-.28 1.14-.4 1.57Z"></path><path fill="#145495" d="M34.86 26.37h-2.23a1.63 1.63 0 0 0-1.18.7s-2.66 4.58-2.92 5h-.31l-.83-5a1 1 0 0 0-1-.73h-1.68a.54.54 0 0 0-.55.71s1.26 7.2 1.51 8.9c.12.94 0 1.1 0 1.1L24 40c-.24.39-.11.71.29.71h1.93a1.55 1.55 0 0 0 1.16-.7l7.42-12.59s.72-1.07.06-1.05Zm-12.65.45a7 7 0 0 0-3.32-.59 14.42 14.42 0 0 0-2.26.17 8.18 8.18 0 0 0-.95.18 1.08 1.08 0 0 0-.82.86l-.22.93c-.13.6.22.58.35.52a10.88 10.88 0 0 1 1.12-.32 7.58 7.58 0 0 1 1.74-.23 4.47 4.47 0 0 1 1.7.24.83.83 0 0 1 .55.84v.26l-.27.17a27 27 0 0 0-2.74.3 8.7 8.7 0 0 0-2.36.64 3.63 3.63 0 0 0-1.6 1.27 3.38 3.38 0 0 0-.57 1.94 2.28 2.28 0 0 0 .77 1.77 2.83 2.83 0 0 0 2 .67 4.87 4.87 0 0 0 1.16-.11l.91-.31.76-.42.7-.47-.06.29a.55.55 0 0 0 .5.69H21a1 1 0 0 0 .8-.69l1.36-5.88.07-.47v-.45a2 2 0 0 0-1.02-1.8Zm-3 6.6-.3.38-.73.38a2.62 2.62 0 0 1-1 .21 2.17 2.17 0 0 1-1.06-.2l-.36-.7a1.4 1.4 0 0 1 .27-.9l.79-.54a7.54 7.54 0 0 1 1.23-.28c.42-.05 1.26-.15 1.38-.15l.12.22c.02.16-.22 1.16-.33 1.58Zm-6-8.23a2.71 2.71 0 0 0-1-1.09 4.54 4.54 0 0 0-1.62-.6 13.86 13.86 0 0 0-2.2-.17H4.53a1 1 0 0 0-.9.71L1 35.42a.55.55 0 0 0 .56.71h1.88a.94.94 0 0 0 .89-.71L5 32.66a.93.93 0 0 1 .88-.7h.52a8.88 8.88 0 0 0 5.3-1.4 4.38 4.38 0 0 0 1.9-3.69 3.42 3.42 0 0 0-.36-1.68Zm-4 3.72a3.91 3.91 0 0 1-2.35.62h-.44a.55.55 0 0 1-.56-.71l.56-2.42a1 1 0 0 1 .89-.71h.6a3 3 0 0 1 1.62.36 1.24 1.24 0 0 1 .54 1.11 2 2 0 0 1-.84 1.75Z"></path></g></svg>