<svg width="224" height="224" viewBox="0 0 224 224" fill="none" xmlns="http://www.w3.org/2000/svg">
<path d="M0 76.8C0 49.9175 0 36.4762 5.23168 26.2085C9.8336 17.1766 17.1766 9.8336 26.2085 5.23168C36.4762 0 49.9175 0 76.8 0H147.2C174.082 0 187.524 0 197.791 5.23168C206.823 9.8336 214.166 17.1766 218.768 26.2085C224 36.4762 224 49.9175 224 76.8V147.2C224 174.082 224 187.524 218.768 197.791C214.166 206.823 206.823 214.166 197.791 218.768C187.524 224 174.082 224 147.2 224H76.8C49.9175 224 36.4762 224 26.2085 218.768C17.1766 214.166 9.8336 206.823 5.23168 197.791C0 187.524 0 174.082 0 147.2V76.8Z" fill="#4087FC"/>
<path d="M50.1334 64C44.5369 64 40 69.1168 40 75.4288V130.857C40 146.952 51.569 160 65.84 160L125.866 159.429C131.463 159.429 136 154.312 136 148V92C136 75.9048 122.271 64 108 64H50.1334Z" fill="white"/>
<path d="M149.698 85.8208C146.077 89.4016 144 94.5688 144 100V123.194C144 128.626 146.077 133.794 149.698 137.374L172.23 157.22C176.815 161.753 184 158.081 184 151.204V73.0816C184 66.204 176.815 62.5323 172.23 67.0656L149.698 85.8208Z" fill="white"/>
</svg>
