<svg id="Livello_1" data-name="Livello 1" xmlns="http://www.w3.org/2000/svg" xmlns:xlink="http://www.w3.org/1999/xlink" viewBox="0 0 855.93 202.42"><defs><style>.cls-1{fill:url(#Sfumatura_senza_nome_8);}</style><linearGradient id="Sfumatura_senza_nome_8" x1="193.75" y1="-41.66" x2="33.75" y2="190.34" gradientUnits="userSpaceOnUse"><stop offset="0" stop-color="#ff8565"/><stop offset="1" stop-color="#fd3b8a"/></linearGradient></defs><path class="cls-1" d="M190.86,0s-35.32,4.44-56.2,43.94H75.73C54.85,4.44,19.52,0,19.52,0L0,145.16c58.75,20,105.2,57.26,105.2,57.26s46.46-37.28,105.21-57.26ZM71.77,142.76c-8.11-.18-22-6.29-21.86-11.8s6.57-13.26,14.66-13.07,13.79,8.35,14.67,13.78S79.87,143,71.77,142.76Zm33.43,40.87c-5.75,0-10.41-3.54-10.41-7.92s4.66-7.92,10.41-7.92,10.4,3.55,10.4,7.92S110.94,183.63,105.2,183.63Zm34-40.87c-8.09.2-8.34-5.64-7.46-11.09s6.55-13.58,14.66-13.78S160.92,125.47,161,131,147.28,142.58,139.16,142.76Z"/><path d="M290.89,169.43H263V33H350V57.75H290.89v34.1H348v24.76H290.89Z"/><path d="M363,126.94V68.85h26.31v58.09q0,9.17,5.85,14.81t15,5.65q9.15,0,15-5.65T431,126.94V68.85h26.31v58.09q0,19.68-13.25,32.06t-33.91,12.38q-20.67,0-33.92-12.38T363,126.94Z"/><path d="M541.35,68.85H572L535.5,118.56,572,169.43H539.6l-20.47-31.77-21.05,31.77h-30.6l36.45-49.7L467.48,68.85h32.35l20.47,31.78Z"/><path d="M653.81,80.74V68.85h26.32V169.43H653.81V157.54q-12.66,13.85-32,13.84-20.67,0-34.5-15t-13.84-37.23q0-22.22,13.84-37.23t34.5-15Q641.14,66.91,653.81,80.74ZM608.4,139.31a26.13,26.13,0,0,0,37.81,0q7.6-8.09,7.6-20.17t-7.6-20.07a26.24,26.24,0,0,0-37.81.09,28.08,28.08,0,0,0-7.6,20Q600.8,131.23,608.4,139.31Z"/><path d="M816,66.91q17.73,0,28.85,11.69t11.1,29.82v61H829.62V113.1q0-9.75-5.36-16a17.29,17.29,0,0,0-13.74-6.24A17.11,17.11,0,0,0,797,97.12q-5.36,6.24-5.36,16v56.33H765.3V113.1q0-9.75-5.26-16a17.93,17.93,0,0,0-27.19,0q-5.37,6.24-5.36,16v56.33H701.18V68.85h26.31V80.94q10.92-14,27.48-14,19.31,0,29.82,16.17Q796.3,66.91,816,66.91Z"/></svg>