<svg xmlns="http://www.w3.org/2000/svg" enable-background="new 0 0 24 24" viewBox="0 0 24 24" id="comment-alt-question"><path d="M6.1,5.5C6.3,5.2,6.6,5,7,5c0.6,0,1,0.4,1,1S7.6,7,7,7S6,7.5,6,8s0.4,1,1,1c1.7,0,3-1.3,3-3S8.7,3,7,3
	C5.9,3,4.9,3.6,4.4,4.5C4.1,5,4.3,5.6,4.8,5.9C5.2,6.1,5.9,6,6.1,5.5C6.1,5.5,6.1,5.5,6.1,5.5z M6,11c0,0.6,0.4,1,1,1s1-0.4,1-1
	s-0.4-1-1-1S6,10.4,6,11z M19,6h-7.5l0,0c0,1.6-0.9,3.1-2.3,3.9c0.2,0.3,0.3,0.7,0.3,1.1c0,1.4-1.1,2.5-2.5,2.5
	c-0.3,0-0.7-0.1-1-0.2V16c0,1.7,1.3,3,3,3h8.4l3,2.7c0.4,0.4,1,0.3,1.4-0.1c0.2-0.2,0.3-0.4,0.3-0.7V9C22,7.3,20.7,6,19,6z"></path></svg>