<?xml version="1.0" encoding="UTF-8"?>
<!DOCTYPE svg PUBLIC "-//W3C//DTD SVG 1.1//EN" "http://www.w3.org/Graphics/SVG/1.1/DTD/svg11.dtd">
<!-- Creator: CorelDRAW 2020 (64-Bit) -->
<svg xmlns="http://www.w3.org/2000/svg" xml:space="preserve" width="3.75956in" height="3.74451in" version="1.1" style="shape-rendering:geometricPrecision; text-rendering:geometricPrecision; image-rendering:optimizeQuality; fill-rule:evenodd; clip-rule:evenodd"
viewBox="0 0 3759.56 3744.51"
 xmlns:xlink="http://www.w3.org/1999/xlink"
 xmlns:xodm="http://www.corel.com/coreldraw/odm/2003">
 <g id="Layer_x0020_1">
  <metadata id="CorelCorpID_0Corel-Layer"/>
  <g id="_2813384271824">
   <path class="fil0" d="M2844.73 1100.86c244.92,158.31 517.71,457.53 522.87,897.15 0.06,201.59 -53.85,443.63 -170.27,610.48 -124.01,177.74 -227.69,285.5 -389.48,427.31 -213.24,186.91 -552.13,369.74 -833.66,409.44 -384.15,42.8 -917.5,-234.82 -1197.36,-488.04 -282.76,-255.85 -481.61,-544.24 -468.71,-941.94 4.03,-124.24 28.9,-233.31 72.81,-349.25 127.57,-326.09 403.08,-552.53 715.34,-693.45 387.53,-171.73 798.78,-187.18 1208.68,-95.39 195.15,45.86 369.8,117.27 539.78,223.67zm-2447.52 -816.18c167.87,49.98 368.38,284.33 476.61,420.28l10.3 16.39c-16.87,14.58 -49.68,32.62 -68.38,44.98 -162.37,110.54 -281.12,217.46 -413.03,362.36 -15.96,17.54 -8.31,-15.32 -9.04,-40.49 -7.23,-251.67 -3.75,-503.09 1.91,-754.74 0.37,-16.29 0.78,-32.5 1.63,-48.77zm2928.33 396.66c0.14,134.67 0.86,271.48 -2.55,406l-54.17 -53.98c-132.41,-136.1 -241.15,-211.01 -397.51,-314.08 -46.29,-28.52 -38.1,-18.86 16.13,-85.72 106.64,-131.48 269.18,-307.28 433.7,-359.02 6.8,133.71 4.35,272.59 4.41,406.79zm-2992.11 -670.52c-129.36,21.94 -200.81,108.51 -213.7,246.86 -6.39,68.57 -3.5,153.07 -4.46,223.64 -4.49,342.13 -12.12,684.39 -9.59,1026.51 1.07,144.92 -41.31,203.87 -70.99,339.68 -82.53,391.68 -27.76,751.85 272.78,1035.53 317.29,299.51 1182.89,867.95 1596.76,861.39 419.2,-24.27 1523.37,-703.52 1739.14,-1092.82 113.38,-204.57 134.46,-480.54 102.94,-708.99 -18.18,-124.37 -55.93,-254.51 -101.72,-358.39 -15.04,-34.13 -26.77,-47.52 -27.06,-89.53l-4.56 -336.65c-2.17,-152.32 -4.27,-304.58 -6.41,-456.82 -1.06,-75.41 -2.13,-151.05 -3.19,-226.57 -1,-71 1.43,-151.87 -4.01,-221.61 -13.98,-129.81 -69.46,-226.87 -207.08,-251.52 -214.28,-26.6 -568.78,294.72 -703.43,450.1 -13.2,15.24 -94.29,115.68 -110.07,113.27 -10.65,-1.63 -105.13,-44.23 -108.43,-49.83 -13.97,-23.67 21.83,-143.52 -53.21,-172.54 -84.51,-32.67 -443.57,-58.4 -551.05,-59.23 -87.15,-0.26 -554.74,20.39 -601.63,88.14 -20.94,30.25 -14.61,124.91 -14.61,162.15 -16.33,10.27 -100.99,48.07 -119.39,53.61 -94.46,-132.78 -334.33,-354.05 -470.89,-443.77 -88.89,-58.39 -216.88,-141.9 -326.14,-132.62z"/>
   <path class="fil0" d="M1149.22 1924.23c-38.72,7.65 -66.07,19.24 -94.16,37.98 -74.52,49.68 -162.42,158.24 -120.25,258.5 41.46,98.57 191.4,184.01 339.31,191.81 94.18,4.97 148,-18.59 202.76,-61.8 20.19,-15.93 16.81,-18.3 16.28,-49.37 -1.07,-61.81 -8.56,-112.49 -29.08,-169.91 -39.75,-111.25 -152.94,-239.17 -314.86,-207.2z"/>
   <path class="fil0" d="M2213.14 2314.69c9.16,19.58 50.62,44.68 74.77,56.27 141.24,67.74 394.37,-13.36 472.63,-146.58 45.31,-77.13 18.56,-137.36 -23.87,-195.52 -90.5,-124.04 -231.23,-167.96 -361.76,-86.77 -107.67,66.96 -161.78,196.1 -161.78,372.6z"/>
   <path class="fil0" d="M1806.98 2629.62c-77.33,8.6 -176.56,61.17 -146.31,141.95 23.44,62.61 115.15,98.14 205.99,87.93 72.98,-8.2 172.6,-57.82 144.28,-141.74 -20.85,-61.79 -117.14,-97.8 -203.95,-88.14z"/>
  </g>
 </g>
</svg>
